<svg height="494" width="720" xmlns="http://www.w3.org/2000/svg">
<rect height="494" fill="#555" width="720"></rect>
<text fill="#7f7" font-family="Courier New" font-size="12" xml:space="preserve">
<tspan x="10" y="26">7 megabytes installed</tspan>
<tspan x="10" y="42"></tspan>
<tspan x="10" y="58">node_modules</tspan>
<tspan x="10" y="74">└─┬ cordova-icon@0.9.1 </tspan>
<tspan x="10" y="90">  ├── colors@0.6.2 </tspan>
<tspan x="10" y="106">  ├─┬ fs-extra@0.30.0 </tspan>
<tspan x="10" y="122">  │ ├── graceful-fs@4.1.11 </tspan>
<tspan x="10" y="138">  │ ├── jsonfile@2.4.0 </tspan>
<tspan x="10" y="154">  │ ├── klaw@1.3.1 </tspan>
<tspan x="10" y="170">  │ ├── path-is-absolute@1.0.1 </tspan>
<tspan x="10" y="186">  │ └─┬ rimraf@2.6.1 </tspan>
<tspan x="10" y="202">  │   └─┬ glob@7.1.1 </tspan>
<tspan x="10" y="218">  │     ├── fs.realpath@1.0.0 </tspan>
<tspan x="10" y="234">  │     ├─┬ inflight@1.0.6 </tspan>
<tspan x="10" y="250">  │     │ └── wrappy@1.0.2 </tspan>
<tspan x="10" y="266">  │     ├── inherits@2.0.3 </tspan>
<tspan x="10" y="282">  │     ├─┬ minimatch@3.0.3 </tspan>
<tspan x="10" y="298">  │     │ └─┬ brace-expansion@1.1.7 </tspan>
<tspan x="10" y="314">  │     │   ├── balanced-match@0.4.2 </tspan>
<tspan x="10" y="330">  │     │   └── concat-map@0.0.1 </tspan>
<tspan x="10" y="346">  │     └── once@1.4.0 </tspan>
<tspan x="10" y="362">  ├── imagemagick@0.1.3 </tspan>
<tspan x="10" y="378">  ├── minimist@1.2.0 </tspan>
<tspan x="10" y="394">  ├── q@1.5.0 </tspan>
<tspan x="10" y="410">  ├── underscore@1.8.3 </tspan>
<tspan x="10" y="426">  └─┬ xml2js@0.4.17 </tspan>
<tspan x="10" y="442">    ├── sax@1.2.2 </tspan>
<tspan x="10" y="458">    └─┬ xmlbuilder@4.2.1 </tspan>
<tspan x="10" y="474">      └── lodash@4.17.4</tspan>
</text>
</svg>
